<svg viewbox="0 0 715.91 613.72" xmlns="http://www.w3.org/2000/svg" xmlns:xlink="http://www.w3.org/1999/xlink" width="100%" height="100%">
	<line x1="404.45" y1="68.82" x2="449.45" y2="68.82" stroke="yellow" stroke-width=".3"/>
	<line x1="404.45" y1="68.82" x2="715.91" y2="95.97" stroke="yellow" stroke-width=".3"/>
	<line x1="449.45" y1="68.82" x2="715.91" y2="86.17" stroke="yellow" stroke-width=".3"/>
	<line x1="715.91" y1="86.17" x2="715.91" y2="95.97" stroke="yellow" stroke-width=".3"/>
	<line x1="449.45" y1="43.82" x2="449.45" y2="68.82" stroke="yellow" stroke-width=".3"/>
	<line x1="449.45" y1="43.82" x2="715.91" y2="23.73" stroke="yellow" stroke-width=".3"/>
	<line x1="449.45" y1="68.82" x2="715.91" y2="86.17" stroke="yellow" stroke-width=".3"/>
	<line x1="715.91" y1="23.73" x2="715.91" y2="86.17" stroke="yellow" stroke-width=".3"/>
	<line x1="404.45" y1="43.82" x2="404.45" y2="68.82" stroke="yellow" stroke-width=".3"/>
	<line x1="404.45" y1="43.82" x2="715.91" y2="12.40" stroke="yellow" stroke-width=".3"/>
	<line x1="404.45" y1="68.82" x2="715.91" y2="95.97" stroke="yellow" stroke-width=".3"/>
	<line x1="715.91" y1="12.40" x2="715.91" y2="95.97" stroke="yellow" stroke-width=".3"/>
	<line x1="476.18" y1="115.55" x2="521.18" y2="115.55" stroke="yellow" stroke-width=".3"/>
	<line x1="476.18" y1="115.55" x2="715.91" y2="183.86" stroke="yellow" stroke-width=".3"/>
	<line x1="521.18" y1="115.55" x2="715.91" y2="161.04" stroke="yellow" stroke-width=".3"/>
	<line x1="715.91" y1="161.04" x2="715.91" y2="183.86" stroke="yellow" stroke-width=".3"/>
	<line x1="521.18" y1="115.55" x2="521.18" y2="140.55" stroke="yellow" stroke-width=".3"/>
	<line x1="521.18" y1="115.55" x2="715.91" y2="161.04" stroke="yellow" stroke-width=".3"/>
	<line x1="521.18" y1="140.55" x2="715.91" y2="205.54" stroke="yellow" stroke-width=".3"/>
	<line x1="715.91" y1="161.04" x2="715.91" y2="205.54" stroke="yellow" stroke-width=".3"/>
	<line x1="332.71" y1="84.46" x2="377.71" y2="84.46" stroke="yellow" stroke-width=".3"/>
	<line x1="332.71" y1="84.46" x2="715.91" y2="254.98" stroke="yellow" stroke-width=".3"/>
	<line x1="377.71" y1="84.46" x2="715.91" y2="171.19" stroke="yellow" stroke-width=".3"/>
	<line x1="715.91" y1="171.19" x2="715.91" y2="254.98" stroke="yellow" stroke-width=".3"/>
	<line x1="377.71" y1="84.46" x2="377.71" y2="109.46" stroke="yellow" stroke-width=".3"/>
	<line x1="377.71" y1="84.46" x2="715.91" y2="171.19" stroke="yellow" stroke-width=".3"/>
	<line x1="377.71" y1="109.46" x2="715.91" y2="275.80" stroke="yellow" stroke-width=".3"/>
	<line x1="715.91" y1="171.19" x2="715.91" y2="275.80" stroke="yellow" stroke-width=".3"/>
	<line x1="476.18" y1="115.55" x2="476.18" y2="140.55" stroke="yellow" stroke-width=".3"/>
	<line x1="476.18" y1="115.55" x2="715.91" y2="183.86" stroke="yellow" stroke-width=".3"/>
	<line x1="476.18" y1="140.55" x2="715.91" y2="238.14" stroke="yellow" stroke-width=".3"/>
	<line x1="715.91" y1="183.86" x2="715.91" y2="238.14" stroke="yellow" stroke-width=".3"/>
	<line x1="476.18" y1="140.55" x2="521.18" y2="140.55" stroke="yellow" stroke-width=".3"/>
	<line x1="476.18" y1="140.55" x2="715.91" y2="238.14" stroke="yellow" stroke-width=".3"/>
	<line x1="521.18" y1="140.55" x2="715.91" y2="205.54" stroke="yellow" stroke-width=".3"/>
	<line x1="715.91" y1="205.54" x2="715.91" y2="238.14" stroke="yellow" stroke-width=".3"/>
	<line x1="260.00" y1="70.00" x2="305.00" y2="70.00" stroke="yellow" stroke-width=".3"/>
	<line x1="260.00" y1="70.00" x2="0.00" y2="358.56" stroke="yellow" stroke-width=".3"/>
	<line x1="305.00" y1="70.00" x2="715.91" y2="226.68" stroke="yellow" stroke-width=".3"/>
	<line x1="0.00" y1="358.56" x2="0.00" y2="613.72" stroke="yellow" stroke-width=".3"/>
	<line x1="715.91" y1="226.68" x2="715.91" y2="613.72" stroke="yellow" stroke-width=".3"/>
	<line x1="0.00" y1="613.72" x2="715.91" y2="613.72" stroke="yellow" stroke-width=".3"/>
	<line x1="305.00" y1="70.00" x2="305.00" y2="95.00" stroke="yellow" stroke-width=".3"/>
	<line x1="305.00" y1="70.00" x2="715.91" y2="226.68" stroke="yellow" stroke-width=".3"/>
	<line x1="305.00" y1="95.00" x2="715.91" y2="558.39" stroke="yellow" stroke-width=".3"/>
	<line x1="715.91" y1="226.68" x2="715.91" y2="558.39" stroke="yellow" stroke-width=".3"/>
	<line x1="394.35" y1="125.65" x2="439.35" y2="125.65" stroke="yellow" stroke-width=".3"/>
	<line x1="394.35" y1="125.65" x2="715.91" y2="304.75" stroke="yellow" stroke-width=".3"/>
	<line x1="439.35" y1="125.65" x2="715.91" y2="238.39" stroke="yellow" stroke-width=".3"/>
	<line x1="715.91" y1="238.39" x2="715.91" y2="304.75" stroke="yellow" stroke-width=".3"/>
	<line x1="439.35" y1="125.65" x2="439.35" y2="150.65" stroke="yellow" stroke-width=".3"/>
	<line x1="439.35" y1="125.65" x2="715.91" y2="238.39" stroke="yellow" stroke-width=".3"/>
	<line x1="439.35" y1="150.65" x2="715.91" y2="304.58" stroke="yellow" stroke-width=".3"/>
	<line x1="715.91" y1="238.39" x2="715.91" y2="304.58" stroke="yellow" stroke-width=".3"/>
	<line x1="332.71" y1="84.46" x2="332.71" y2="109.46" stroke="yellow" stroke-width=".3"/>
	<line x1="332.71" y1="84.46" x2="715.91" y2="254.98" stroke="yellow" stroke-width=".3"/>
	<line x1="332.71" y1="109.46" x2="715.91" y2="436.50" stroke="yellow" stroke-width=".3"/>
	<line x1="715.91" y1="254.98" x2="715.91" y2="436.50" stroke="yellow" stroke-width=".3"/>
	<line x1="332.71" y1="109.46" x2="377.71" y2="109.46" stroke="yellow" stroke-width=".3"/>
	<line x1="332.71" y1="109.46" x2="715.91" y2="436.50" stroke="yellow" stroke-width=".3"/>
	<line x1="377.71" y1="109.46" x2="715.91" y2="275.80" stroke="yellow" stroke-width=".3"/>
	<line x1="715.91" y1="275.80" x2="715.91" y2="436.50" stroke="yellow" stroke-width=".3"/>
	<line x1="515.00" y1="209.28" x2="560.00" y2="209.28" stroke="yellow" stroke-width=".3"/>
	<line x1="515.00" y1="209.28" x2="715.91" y2="334.73" stroke="yellow" stroke-width=".3"/>
	<line x1="560.00" y1="209.28" x2="715.91" y2="291.44" stroke="yellow" stroke-width=".3"/>
	<line x1="715.91" y1="291.44" x2="715.91" y2="334.73" stroke="yellow" stroke-width=".3"/>
	<line x1="560.00" y1="209.28" x2="560.00" y2="234.28" stroke="yellow" stroke-width=".3"/>
	<line x1="560.00" y1="209.28" x2="715.91" y2="291.44" stroke="yellow" stroke-width=".3"/>
	<line x1="560.00" y1="234.28" x2="715.91" y2="329.95" stroke="yellow" stroke-width=".3"/>
	<line x1="715.91" y1="291.44" x2="715.91" y2="329.95" stroke="yellow" stroke-width=".3"/>
	<line x1="394.35" y1="150.65" x2="439.35" y2="150.65" stroke="yellow" stroke-width=".3"/>
	<line x1="394.35" y1="150.65" x2="715.91" y2="395.19" stroke="yellow" stroke-width=".3"/>
	<line x1="439.35" y1="150.65" x2="715.91" y2="304.58" stroke="yellow" stroke-width=".3"/>
	<line x1="715.91" y1="304.58" x2="715.91" y2="395.19" stroke="yellow" stroke-width=".3"/>
	<line x1="394.35" y1="125.65" x2="394.35" y2="150.65" stroke="yellow" stroke-width=".3"/>
	<line x1="394.35" y1="125.65" x2="715.91" y2="304.75" stroke="yellow" stroke-width=".3"/>
	<line x1="394.35" y1="150.65" x2="715.91" y2="395.19" stroke="yellow" stroke-width=".3"/>
	<line x1="715.91" y1="304.75" x2="715.91" y2="395.19" stroke="yellow" stroke-width=".3"/>
	<line x1="515.00" y1="234.28" x2="560.00" y2="234.28" stroke="yellow" stroke-width=".3"/>
	<line x1="515.00" y1="234.28" x2="715.91" y2="380.36" stroke="yellow" stroke-width=".3"/>
	<line x1="560.00" y1="234.28" x2="715.91" y2="329.95" stroke="yellow" stroke-width=".3"/>
	<line x1="715.91" y1="329.95" x2="715.91" y2="380.36" stroke="yellow" stroke-width=".3"/>
	<line x1="435.54" y1="187.29" x2="480.54" y2="187.29" stroke="yellow" stroke-width=".3"/>
	<line x1="435.54" y1="187.29" x2="715.91" y2="409.60" stroke="yellow" stroke-width=".3"/>
	<line x1="480.54" y1="187.29" x2="715.91" y2="333.74" stroke="yellow" stroke-width=".3"/>
	<line x1="715.91" y1="333.74" x2="715.91" y2="409.60" stroke="yellow" stroke-width=".3"/>
	<line x1="480.54" y1="187.29" x2="480.54" y2="212.29" stroke="yellow" stroke-width=".3"/>
	<line x1="480.54" y1="187.29" x2="715.91" y2="333.74" stroke="yellow" stroke-width=".3"/>
	<line x1="480.54" y1="212.29" x2="715.91" y2="386.89" stroke="yellow" stroke-width=".3"/>
	<line x1="715.91" y1="333.74" x2="715.91" y2="386.89" stroke="yellow" stroke-width=".3"/>
	<line x1="515.00" y1="209.28" x2="515.00" y2="234.28" stroke="yellow" stroke-width=".3"/>
	<line x1="515.00" y1="209.28" x2="715.91" y2="334.73" stroke="yellow" stroke-width=".3"/>
	<line x1="515.00" y1="234.28" x2="715.91" y2="380.36" stroke="yellow" stroke-width=".3"/>
	<line x1="715.91" y1="334.73" x2="715.91" y2="380.36" stroke="yellow" stroke-width=".3"/>
	<line x1="435.54" y1="212.29" x2="480.54" y2="212.29" stroke="yellow" stroke-width=".3"/>
	<line x1="435.54" y1="212.29" x2="715.91" y2="477.33" stroke="yellow" stroke-width=".3"/>
	<line x1="480.54" y1="212.29" x2="715.91" y2="386.89" stroke="yellow" stroke-width=".3"/>
	<line x1="715.91" y1="386.89" x2="715.91" y2="477.33" stroke="yellow" stroke-width=".3"/>
	<line x1="435.54" y1="187.29" x2="435.54" y2="212.29" stroke="yellow" stroke-width=".3"/>
	<line x1="435.54" y1="187.29" x2="715.91" y2="409.60" stroke="yellow" stroke-width=".3"/>
	<line x1="435.54" y1="212.29" x2="715.91" y2="477.33" stroke="yellow" stroke-width=".3"/>
	<line x1="715.91" y1="409.60" x2="715.91" y2="477.33" stroke="yellow" stroke-width=".3"/>
	<line x1="515.00" y1="310.72" x2="560.00" y2="310.72" stroke="yellow" stroke-width=".3"/>
	<line x1="515.00" y1="310.72" x2="715.91" y2="519.88" stroke="yellow" stroke-width=".3"/>
	<line x1="560.00" y1="310.72" x2="715.91" y2="447.71" stroke="yellow" stroke-width=".3"/>
	<line x1="715.91" y1="447.71" x2="715.91" y2="519.88" stroke="yellow" stroke-width=".3"/>
	<line x1="560.00" y1="310.72" x2="560.00" y2="335.72" stroke="yellow" stroke-width=".3"/>
	<line x1="560.00" y1="310.72" x2="715.91" y2="447.71" stroke="yellow" stroke-width=".3"/>
	<line x1="560.00" y1="335.72" x2="715.91" y2="486.22" stroke="yellow" stroke-width=".3"/>
	<line x1="715.91" y1="447.71" x2="715.91" y2="486.22" stroke="yellow" stroke-width=".3"/>
	<line x1="450.00" y1="260.00" x2="495.00" y2="260.00" stroke="yellow" stroke-width=".3"/>
	<line x1="450.00" y1="260.00" x2="715.91" y2="562.08" stroke="yellow" stroke-width=".3"/>
	<line x1="495.00" y1="260.00" x2="715.91" y2="460.43" stroke="yellow" stroke-width=".3"/>
	<line x1="715.91" y1="460.43" x2="715.91" y2="562.08" stroke="yellow" stroke-width=".3"/>
	<line x1="495.00" y1="260.00" x2="495.00" y2="285.00" stroke="yellow" stroke-width=".3"/>
	<line x1="495.00" y1="260.00" x2="715.91" y2="460.43" stroke="yellow" stroke-width=".3"/>
	<line x1="495.00" y1="285.00" x2="715.91" y2="510.14" stroke="yellow" stroke-width=".3"/>
	<line x1="715.91" y1="460.43" x2="715.91" y2="510.14" stroke="yellow" stroke-width=".3"/>
	<line x1="515.00" y1="335.72" x2="560.00" y2="335.72" stroke="yellow" stroke-width=".3"/>
	<line x1="515.00" y1="335.72" x2="715.91" y2="565.51" stroke="yellow" stroke-width=".3"/>
	<line x1="560.00" y1="335.72" x2="715.91" y2="486.22" stroke="yellow" stroke-width=".3"/>
	<line x1="715.91" y1="486.22" x2="715.91" y2="565.51" stroke="yellow" stroke-width=".3"/>
	<line x1="450.00" y1="285.00" x2="495.00" y2="285.00" stroke="yellow" stroke-width=".3"/>
	<line x1="450.00" y1="285.00" x2="707.60" y2="613.72" stroke="yellow" stroke-width=".3"/>
	<line x1="495.00" y1="285.00" x2="715.91" y2="510.14" stroke="yellow" stroke-width=".3"/>
	<line x1="715.91" y1="510.14" x2="715.91" y2="613.72" stroke="yellow" stroke-width=".3"/>
	<line x1="707.60" y1="613.72" x2="715.91" y2="613.72" stroke="yellow" stroke-width=".3"/>
	<line x1="515.00" y1="310.72" x2="515.00" y2="335.72" stroke="yellow" stroke-width=".3"/>
	<line x1="515.00" y1="310.72" x2="715.91" y2="519.88" stroke="yellow" stroke-width=".3"/>
	<line x1="515.00" y1="335.72" x2="715.91" y2="565.51" stroke="yellow" stroke-width=".3"/>
	<line x1="715.91" y1="519.88" x2="715.91" y2="565.51" stroke="yellow" stroke-width=".3"/>
	<line x1="260.00" y1="95.00" x2="305.00" y2="95.00" stroke="yellow" stroke-width=".3"/>
	<line x1="260.00" y1="95.00" x2="101.97" y2="613.72" stroke="yellow" stroke-width=".3"/>
	<line x1="305.00" y1="95.00" x2="715.91" y2="558.39" stroke="yellow" stroke-width=".3"/>
	<line x1="715.91" y1="558.39" x2="715.91" y2="613.72" stroke="yellow" stroke-width=".3"/>
	<line x1="101.97" y1="613.72" x2="715.91" y2="613.72" stroke="yellow" stroke-width=".3"/>
	<line x1="450.00" y1="260.00" x2="450.00" y2="285.00" stroke="yellow" stroke-width=".3"/>
	<line x1="450.00" y1="260.00" x2="715.91" y2="562.08" stroke="yellow" stroke-width=".3"/>
	<line x1="450.00" y1="285.00" x2="707.60" y2="613.72" stroke="yellow" stroke-width=".3"/>
	<line x1="715.91" y1="562.08" x2="715.91" y2="613.72" stroke="yellow" stroke-width=".3"/>
	<line x1="707.60" y1="613.72" x2="715.91" y2="613.72" stroke="yellow" stroke-width=".3"/>
	<line x1="435.54" y1="332.71" x2="480.54" y2="332.71" stroke="yellow" stroke-width=".3"/>
	<line x1="435.54" y1="332.71" x2="602.86" y2="613.72" stroke="yellow" stroke-width=".3"/>
	<line x1="480.54" y1="332.71" x2="693.76" y2="613.72" stroke="yellow" stroke-width=".3"/>
	<line x1="602.86" y1="613.72" x2="693.76" y2="613.72" stroke="yellow" stroke-width=".3"/>
	<line x1="480.54" y1="332.71" x2="480.54" y2="357.71" stroke="yellow" stroke-width=".3"/>
	<line x1="480.54" y1="332.71" x2="693.76" y2="613.72" stroke="yellow" stroke-width=".3"/>
	<line x1="480.54" y1="357.71" x2="658.63" y2="613.72" stroke="yellow" stroke-width=".3"/>
	<line x1="658.63" y1="613.72" x2="693.76" y2="613.72" stroke="yellow" stroke-width=".3"/>
	<line x1="476.18" y1="404.45" x2="521.18" y2="404.45" stroke="yellow" stroke-width=".3"/>
	<line x1="476.18" y1="404.45" x2="599.54" y2="613.72" stroke="yellow" stroke-width=".3"/>
	<line x1="521.18" y1="404.45" x2="671.66" y2="613.72" stroke="yellow" stroke-width=".3"/>
	<line x1="599.54" y1="613.72" x2="671.66" y2="613.72" stroke="yellow" stroke-width=".3"/>
	<line x1="521.18" y1="404.45" x2="521.18" y2="429.45" stroke="yellow" stroke-width=".3"/>
	<line x1="521.18" y1="404.45" x2="671.66" y2="613.72" stroke="yellow" stroke-width=".3"/>
	<line x1="521.18" y1="429.45" x2="644.79" y2="613.72" stroke="yellow" stroke-width=".3"/>
	<line x1="644.79" y1="613.72" x2="671.66" y2="613.72" stroke="yellow" stroke-width=".3"/>
	<line x1="435.54" y1="357.71" x2="480.54" y2="357.71" stroke="yellow" stroke-width=".3"/>
	<line x1="435.54" y1="357.71" x2="575.29" y2="613.72" stroke="yellow" stroke-width=".3"/>
	<line x1="480.54" y1="357.71" x2="658.63" y2="613.72" stroke="yellow" stroke-width=".3"/>
	<line x1="575.29" y1="613.72" x2="658.63" y2="613.72" stroke="yellow" stroke-width=".3"/>
	<line x1="476.18" y1="429.45" x2="521.18" y2="429.45" stroke="yellow" stroke-width=".3"/>
	<line x1="476.18" y1="429.45" x2="577.51" y2="613.72" stroke="yellow" stroke-width=".3"/>
	<line x1="521.18" y1="429.45" x2="644.79" y2="613.72" stroke="yellow" stroke-width=".3"/>
	<line x1="577.51" y1="613.72" x2="644.79" y2="613.72" stroke="yellow" stroke-width=".3"/>
	<line x1="435.54" y1="332.71" x2="435.54" y2="357.71" stroke="yellow" stroke-width=".3"/>
	<line x1="435.54" y1="332.71" x2="602.86" y2="613.72" stroke="yellow" stroke-width=".3"/>
	<line x1="435.54" y1="357.71" x2="575.29" y2="613.72" stroke="yellow" stroke-width=".3"/>
	<line x1="575.29" y1="613.72" x2="602.86" y2="613.72" stroke="yellow" stroke-width=".3"/>
	<line x1="476.18" y1="404.45" x2="476.18" y2="429.45" stroke="yellow" stroke-width=".3"/>
	<line x1="476.18" y1="404.45" x2="599.54" y2="613.72" stroke="yellow" stroke-width=".3"/>
	<line x1="476.18" y1="429.45" x2="577.51" y2="613.72" stroke="yellow" stroke-width=".3"/>
	<line x1="577.51" y1="613.72" x2="599.54" y2="613.72" stroke="yellow" stroke-width=".3"/>
	<line x1="394.35" y1="394.35" x2="439.35" y2="394.35" stroke="yellow" stroke-width=".3"/>
	<line x1="394.35" y1="394.35" x2="474.29" y2="613.72" stroke="yellow" stroke-width=".3"/>
	<line x1="439.35" y1="394.35" x2="548.57" y2="613.72" stroke="yellow" stroke-width=".3"/>
	<line x1="474.29" y1="613.72" x2="548.57" y2="613.72" stroke="yellow" stroke-width=".3"/>
	<line x1="439.35" y1="394.35" x2="439.35" y2="419.35" stroke="yellow" stroke-width=".3"/>
	<line x1="439.35" y1="394.35" x2="548.57" y2="613.72" stroke="yellow" stroke-width=".3"/>
	<line x1="439.35" y1="419.35" x2="529.44" y2="613.72" stroke="yellow" stroke-width=".3"/>
	<line x1="529.44" y1="613.72" x2="548.57" y2="613.72" stroke="yellow" stroke-width=".3"/>
	<line x1="394.35" y1="419.35" x2="439.35" y2="419.35" stroke="yellow" stroke-width=".3"/>
	<line x1="394.35" y1="419.35" x2="460.29" y2="613.72" stroke="yellow" stroke-width=".3"/>
	<line x1="439.35" y1="419.35" x2="529.44" y2="613.72" stroke="yellow" stroke-width=".3"/>
	<line x1="460.29" y1="613.72" x2="529.44" y2="613.72" stroke="yellow" stroke-width=".3"/>
	<line x1="404.45" y1="476.18" x2="449.45" y2="476.18" stroke="yellow" stroke-width=".3"/>
	<line x1="404.45" y1="476.18" x2="448.09" y2="613.72" stroke="yellow" stroke-width=".3"/>
	<line x1="449.45" y1="476.18" x2="507.86" y2="613.72" stroke="yellow" stroke-width=".3"/>
	<line x1="448.09" y1="613.72" x2="507.86" y2="613.72" stroke="yellow" stroke-width=".3"/>
	<line x1="449.45" y1="476.18" x2="449.45" y2="501.18" stroke="yellow" stroke-width=".3"/>
	<line x1="449.45" y1="476.18" x2="507.86" y2="613.72" stroke="yellow" stroke-width=".3"/>
	<line x1="449.45" y1="501.18" x2="494.55" y2="613.72" stroke="yellow" stroke-width=".3"/>
	<line x1="494.55" y1="613.72" x2="507.86" y2="613.72" stroke="yellow" stroke-width=".3"/>
	<line x1="404.45" y1="501.18" x2="449.45" y2="501.18" stroke="yellow" stroke-width=".3"/>
	<line x1="404.45" y1="501.18" x2="438.15" y2="613.72" stroke="yellow" stroke-width=".3"/>
	<line x1="449.45" y1="501.18" x2="494.55" y2="613.72" stroke="yellow" stroke-width=".3"/>
	<line x1="438.15" y1="613.72" x2="494.55" y2="613.72" stroke="yellow" stroke-width=".3"/>
	<line x1="394.35" y1="394.35" x2="394.35" y2="419.35" stroke="yellow" stroke-width=".3"/>
	<line x1="394.35" y1="394.35" x2="474.29" y2="613.72" stroke="yellow" stroke-width=".3"/>
	<line x1="394.35" y1="419.35" x2="460.29" y2="613.72" stroke="yellow" stroke-width=".3"/>
	<line x1="460.29" y1="613.72" x2="474.29" y2="613.72" stroke="yellow" stroke-width=".3"/>
	<line x1="404.45" y1="476.18" x2="404.45" y2="501.18" stroke="yellow" stroke-width=".3"/>
	<line x1="404.45" y1="476.18" x2="448.09" y2="613.72" stroke="yellow" stroke-width=".3"/>
	<line x1="404.45" y1="501.18" x2="438.15" y2="613.72" stroke="yellow" stroke-width=".3"/>
	<line x1="438.15" y1="613.72" x2="448.09" y2="613.72" stroke="yellow" stroke-width=".3"/>
	<line x1="332.71" y1="435.54" x2="377.71" y2="435.54" stroke="yellow" stroke-width=".3"/>
	<line x1="332.71" y1="435.54" x2="361.54" y2="613.72" stroke="yellow" stroke-width=".3"/>
	<line x1="377.71" y1="435.54" x2="427.73" y2="613.72" stroke="yellow" stroke-width=".3"/>
	<line x1="361.54" y1="613.72" x2="427.73" y2="613.72" stroke="yellow" stroke-width=".3"/>
	<line x1="377.71" y1="435.54" x2="377.71" y2="460.54" stroke="yellow" stroke-width=".3"/>
	<line x1="377.71" y1="435.54" x2="427.73" y2="613.72" stroke="yellow" stroke-width=".3"/>
	<line x1="377.71" y1="460.54" x2="418.05" y2="613.72" stroke="yellow" stroke-width=".3"/>
	<line x1="418.05" y1="613.72" x2="427.73" y2="613.72" stroke="yellow" stroke-width=".3"/>
	<line x1="332.71" y1="460.54" x2="377.71" y2="460.54" stroke="yellow" stroke-width=".3"/>
	<line x1="332.71" y1="460.54" x2="355.96" y2="613.72" stroke="yellow" stroke-width=".3"/>
	<line x1="377.71" y1="460.54" x2="418.05" y2="613.72" stroke="yellow" stroke-width=".3"/>
	<line x1="355.96" y1="613.72" x2="418.05" y2="613.72" stroke="yellow" stroke-width=".3"/>
	<line x1="310.72" y1="515.00" x2="355.72" y2="515.00" stroke="yellow" stroke-width=".3"/>
	<line x1="310.72" y1="515.00" x2="319.18" y2="613.72" stroke="yellow" stroke-width=".3"/>
	<line x1="355.72" y1="515.00" x2="373.88" y2="613.72" stroke="yellow" stroke-width=".3"/>
	<line x1="319.18" y1="613.72" x2="373.88" y2="613.72" stroke="yellow" stroke-width=".3"/>
	<line x1="355.72" y1="515.00" x2="355.72" y2="540.00" stroke="yellow" stroke-width=".3"/>
	<line x1="355.72" y1="515.00" x2="373.88" y2="613.72" stroke="yellow" stroke-width=".3"/>
	<line x1="355.72" y1="540.00" x2="368.58" y2="613.72" stroke="yellow" stroke-width=".3"/>
	<line x1="368.58" y1="613.72" x2="373.88" y2="613.72" stroke="yellow" stroke-width=".3"/>
	<line x1="310.72" y1="540.00" x2="355.72" y2="540.00" stroke="yellow" stroke-width=".3"/>
	<line x1="310.72" y1="540.00" x2="316.71" y2="613.72" stroke="yellow" stroke-width=".3"/>
	<line x1="355.72" y1="540.00" x2="368.58" y2="613.72" stroke="yellow" stroke-width=".3"/>
	<line x1="316.71" y1="613.72" x2="368.58" y2="613.72" stroke="yellow" stroke-width=".3"/>
	<line x1="332.71" y1="435.54" x2="332.71" y2="460.54" stroke="yellow" stroke-width=".3"/>
	<line x1="332.71" y1="435.54" x2="361.54" y2="613.72" stroke="yellow" stroke-width=".3"/>
	<line x1="332.71" y1="460.54" x2="355.96" y2="613.72" stroke="yellow" stroke-width=".3"/>
	<line x1="355.96" y1="613.72" x2="361.54" y2="613.72" stroke="yellow" stroke-width=".3"/>
	<line x1="310.72" y1="515.00" x2="310.72" y2="540.00" stroke="yellow" stroke-width=".3"/>
	<line x1="310.72" y1="515.00" x2="319.18" y2="613.72" stroke="yellow" stroke-width=".3"/>
	<line x1="310.72" y1="540.00" x2="316.71" y2="613.72" stroke="yellow" stroke-width=".3"/>
	<line x1="316.71" y1="613.72" x2="319.18" y2="613.72" stroke="yellow" stroke-width=".3"/>
	<line x1="260.00" y1="450.00" x2="305.00" y2="450.00" stroke="yellow" stroke-width=".3"/>
	<line x1="260.00" y1="450.00" x2="255.20" y2="613.72" stroke="yellow" stroke-width=".3"/>
	<line x1="305.00" y1="450.00" x2="318.96" y2="613.72" stroke="yellow" stroke-width=".3"/>
	<line x1="255.20" y1="613.72" x2="318.96" y2="613.72" stroke="yellow" stroke-width=".3"/>
	<line x1="305.00" y1="450.00" x2="305.00" y2="475.00" stroke="yellow" stroke-width=".3"/>
	<line x1="305.00" y1="450.00" x2="318.96" y2="613.72" stroke="yellow" stroke-width=".3"/>
	<line x1="305.00" y1="475.00" x2="316.12" y2="613.72" stroke="yellow" stroke-width=".3"/>
	<line x1="316.12" y1="613.72" x2="318.96" y2="613.72" stroke="yellow" stroke-width=".3"/>
	<line x1="260.00" y1="475.00" x2="305.00" y2="475.00" stroke="yellow" stroke-width=".3"/>
	<line x1="260.00" y1="475.00" x2="256.18" y2="613.72" stroke="yellow" stroke-width=".3"/>
	<line x1="305.00" y1="475.00" x2="316.12" y2="613.72" stroke="yellow" stroke-width=".3"/>
	<line x1="256.18" y1="613.72" x2="316.12" y2="613.72" stroke="yellow" stroke-width=".3"/>
	<line x1="260.00" y1="450.00" x2="260.00" y2="475.00" stroke="yellow" stroke-width=".3"/>
	<line x1="260.00" y1="450.00" x2="255.20" y2="613.72" stroke="yellow" stroke-width=".3"/>
	<line x1="260.00" y1="475.00" x2="256.18" y2="613.72" stroke="yellow" stroke-width=".3"/>
	<line x1="255.20" y1="613.72" x2="256.18" y2="613.72" stroke="yellow" stroke-width=".3"/>
	<line x1="254.28" y1="515.00" x2="254.28" y2="540.00" stroke="yellow" stroke-width=".3"/>
	<line x1="254.28" y1="515.00" x2="250.56" y2="613.72" stroke="yellow" stroke-width=".3"/>
	<line x1="254.28" y1="540.00" x2="251.65" y2="613.72" stroke="yellow" stroke-width=".3"/>
	<line x1="250.56" y1="613.72" x2="251.65" y2="613.72" stroke="yellow" stroke-width=".3"/>
	<line x1="209.28" y1="540.00" x2="254.28" y2="540.00" stroke="yellow" stroke-width=".3"/>
	<line x1="209.28" y1="540.00" x2="199.77" y2="613.72" stroke="yellow" stroke-width=".3"/>
	<line x1="254.28" y1="540.00" x2="251.65" y2="613.72" stroke="yellow" stroke-width=".3"/>
	<line x1="199.77" y1="613.72" x2="251.65" y2="613.72" stroke="yellow" stroke-width=".3"/>
	<line x1="209.28" y1="515.00" x2="254.28" y2="515.00" stroke="yellow" stroke-width=".3"/>
	<line x1="209.28" y1="515.00" x2="195.86" y2="613.72" stroke="yellow" stroke-width=".3"/>
	<line x1="254.28" y1="515.00" x2="250.56" y2="613.72" stroke="yellow" stroke-width=".3"/>
	<line x1="195.86" y1="613.72" x2="250.56" y2="613.72" stroke="yellow" stroke-width=".3"/>
	<line x1="232.29" y1="435.54" x2="232.29" y2="460.54" stroke="yellow" stroke-width=".3"/>
	<line x1="232.29" y1="435.54" x2="213.82" y2="613.72" stroke="yellow" stroke-width=".3"/>
	<line x1="232.29" y1="460.54" x2="217.40" y2="613.72" stroke="yellow" stroke-width=".3"/>
	<line x1="213.82" y1="613.72" x2="217.40" y2="613.72" stroke="yellow" stroke-width=".3"/>
	<line x1="187.29" y1="460.54" x2="232.29" y2="460.54" stroke="yellow" stroke-width=".3"/>
	<line x1="187.29" y1="460.54" x2="155.30" y2="613.72" stroke="yellow" stroke-width=".3"/>
	<line x1="232.29" y1="460.54" x2="217.40" y2="613.72" stroke="yellow" stroke-width=".3"/>
	<line x1="155.30" y1="613.72" x2="217.40" y2="613.72" stroke="yellow" stroke-width=".3"/>
	<line x1="187.29" y1="435.54" x2="232.29" y2="435.54" stroke="yellow" stroke-width=".3"/>
	<line x1="187.29" y1="435.54" x2="147.62" y2="613.72" stroke="yellow" stroke-width=".3"/>
	<line x1="232.29" y1="435.54" x2="213.82" y2="613.72" stroke="yellow" stroke-width=".3"/>
	<line x1="147.62" y1="613.72" x2="213.82" y2="613.72" stroke="yellow" stroke-width=".3"/>
	<line x1="209.28" y1="515.00" x2="209.28" y2="540.00" stroke="yellow" stroke-width=".3"/>
	<line x1="209.28" y1="515.00" x2="195.86" y2="613.72" stroke="yellow" stroke-width=".3"/>
	<line x1="209.28" y1="540.00" x2="199.77" y2="613.72" stroke="yellow" stroke-width=".3"/>
	<line x1="195.86" y1="613.72" x2="199.77" y2="613.72" stroke="yellow" stroke-width=".3"/>
	<line x1="187.29" y1="435.54" x2="187.29" y2="460.54" stroke="yellow" stroke-width=".3"/>
	<line x1="187.29" y1="435.54" x2="147.62" y2="613.72" stroke="yellow" stroke-width=".3"/>
	<line x1="187.29" y1="460.54" x2="155.30" y2="613.72" stroke="yellow" stroke-width=".3"/>
	<line x1="147.62" y1="613.72" x2="155.30" y2="613.72" stroke="yellow" stroke-width=".3"/>
	<line x1="160.55" y1="476.18" x2="160.55" y2="501.18" stroke="yellow" stroke-width=".3"/>
	<line x1="160.55" y1="476.18" x2="124.13" y2="613.72" stroke="yellow" stroke-width=".3"/>
	<line x1="160.55" y1="501.18" x2="132.43" y2="613.72" stroke="yellow" stroke-width=".3"/>
	<line x1="124.13" y1="613.72" x2="132.43" y2="613.72" stroke="yellow" stroke-width=".3"/>
	<line x1="115.55" y1="501.18" x2="160.55" y2="501.18" stroke="yellow" stroke-width=".3"/>
	<line x1="115.55" y1="501.18" x2="76.02" y2="613.72" stroke="yellow" stroke-width=".3"/>
	<line x1="160.55" y1="501.18" x2="132.43" y2="613.72" stroke="yellow" stroke-width=".3"/>
	<line x1="76.02" y1="613.72" x2="132.43" y2="613.72" stroke="yellow" stroke-width=".3"/>
	<line x1="115.55" y1="476.18" x2="160.55" y2="476.18" stroke="yellow" stroke-width=".3"/>
	<line x1="115.55" y1="476.18" x2="64.35" y2="613.72" stroke="yellow" stroke-width=".3"/>
	<line x1="160.55" y1="476.18" x2="124.13" y2="613.72" stroke="yellow" stroke-width=".3"/>
	<line x1="64.35" y1="613.72" x2="124.13" y2="613.72" stroke="yellow" stroke-width=".3"/>
	<line x1="170.65" y1="394.35" x2="170.65" y2="419.35" stroke="yellow" stroke-width=".3"/>
	<line x1="170.65" y1="394.35" x2="105.02" y2="613.72" stroke="yellow" stroke-width=".3"/>
	<line x1="170.65" y1="419.35" x2="116.51" y2="613.72" stroke="yellow" stroke-width=".3"/>
	<line x1="105.02" y1="613.72" x2="116.51" y2="613.72" stroke="yellow" stroke-width=".3"/>
	<line x1="125.65" y1="419.35" x2="170.65" y2="419.35" stroke="yellow" stroke-width=".3"/>
	<line x1="125.65" y1="419.35" x2="47.36" y2="613.72" stroke="yellow" stroke-width=".3"/>
	<line x1="170.65" y1="419.35" x2="116.51" y2="613.72" stroke="yellow" stroke-width=".3"/>
	<line x1="47.36" y1="613.72" x2="116.51" y2="613.72" stroke="yellow" stroke-width=".3"/>
	<line x1="125.65" y1="394.35" x2="170.65" y2="394.35" stroke="yellow" stroke-width=".3"/>
	<line x1="125.65" y1="394.35" x2="30.74" y2="613.72" stroke="yellow" stroke-width=".3"/>
	<line x1="170.65" y1="394.35" x2="105.02" y2="613.72" stroke="yellow" stroke-width=".3"/>
	<line x1="30.74" y1="613.72" x2="105.02" y2="613.72" stroke="yellow" stroke-width=".3"/>
	<line x1="260.00" y1="70.00" x2="260.00" y2="95.00" stroke="yellow" stroke-width=".3"/>
	<line x1="260.00" y1="70.00" x2="0.00" y2="358.56" stroke="yellow" stroke-width=".3"/>
	<line x1="260.00" y1="95.00" x2="101.97" y2="613.72" stroke="yellow" stroke-width=".3"/>
	<line x1="0.00" y1="358.56" x2="0.00" y2="613.72" stroke="yellow" stroke-width=".3"/>
	<line x1="101.97" y1="613.72" x2="0.00" y2="613.72" stroke="yellow" stroke-width=".3"/>
	<line x1="115.55" y1="476.18" x2="115.55" y2="501.18" stroke="yellow" stroke-width=".3"/>
	<line x1="115.55" y1="476.18" x2="64.35" y2="613.72" stroke="yellow" stroke-width=".3"/>
	<line x1="115.55" y1="501.18" x2="76.02" y2="613.72" stroke="yellow" stroke-width=".3"/>
	<line x1="64.35" y1="613.72" x2="76.02" y2="613.72" stroke="yellow" stroke-width=".3"/>
	<line x1="125.65" y1="394.35" x2="125.65" y2="419.35" stroke="yellow" stroke-width=".3"/>
	<line x1="125.65" y1="394.35" x2="30.74" y2="613.72" stroke="yellow" stroke-width=".3"/>
	<line x1="125.65" y1="419.35" x2="47.36" y2="613.72" stroke="yellow" stroke-width=".3"/>
	<line x1="30.74" y1="613.72" x2="47.36" y2="613.72" stroke="yellow" stroke-width=".3"/>
	<line x1="129.46" y1="332.71" x2="129.46" y2="357.71" stroke="yellow" stroke-width=".3"/>
	<line x1="129.46" y1="332.71" x2="0.00" y2="583.79" stroke="yellow" stroke-width=".3"/>
	<line x1="129.46" y1="357.71" x2="8.44" y2="613.72" stroke="yellow" stroke-width=".3"/>
	<line x1="0.00" y1="583.79" x2="0.00" y2="613.72" stroke="yellow" stroke-width=".3"/>
	<line x1="8.44" y1="613.72" x2="0.00" y2="613.72" stroke="yellow" stroke-width=".3"/>
	<line x1="84.46" y1="357.71" x2="129.46" y2="357.71" stroke="yellow" stroke-width=".3"/>
	<line x1="84.46" y1="357.71" x2="0.00" y2="493.40" stroke="yellow" stroke-width=".3"/>
	<line x1="129.46" y1="357.71" x2="8.44" y2="613.72" stroke="yellow" stroke-width=".3"/>
	<line x1="0.00" y1="493.40" x2="0.00" y2="613.72" stroke="yellow" stroke-width=".3"/>
	<line x1="0.00" y1="613.72" x2="8.44" y2="613.72" stroke="yellow" stroke-width=".3"/>
	<line x1="88.82" y1="404.45" x2="88.82" y2="429.45" stroke="yellow" stroke-width=".3"/>
	<line x1="88.82" y1="404.45" x2="0.00" y2="573.26" stroke="yellow" stroke-width=".3"/>
	<line x1="88.82" y1="429.45" x2="0.00" y2="610.41" stroke="yellow" stroke-width=".3"/>
	<line x1="0.00" y1="573.26" x2="0.00" y2="610.41" stroke="yellow" stroke-width=".3"/>
	<line x1="43.82" y1="429.45" x2="88.82" y2="429.45" stroke="yellow" stroke-width=".3"/>
	<line x1="43.82" y1="429.45" x2="0.00" y2="501.08" stroke="yellow" stroke-width=".3"/>
	<line x1="88.82" y1="429.45" x2="0.00" y2="610.41" stroke="yellow" stroke-width=".3"/>
	<line x1="0.00" y1="501.08" x2="0.00" y2="610.41" stroke="yellow" stroke-width=".3"/>
	<line x1="84.46" y1="332.71" x2="129.46" y2="332.71" stroke="yellow" stroke-width=".3"/>
	<line x1="84.46" y1="332.71" x2="0.00" y2="457.11" stroke="yellow" stroke-width=".3"/>
	<line x1="129.46" y1="332.71" x2="0.00" y2="583.79" stroke="yellow" stroke-width=".3"/>
	<line x1="0.00" y1="457.11" x2="0.00" y2="583.79" stroke="yellow" stroke-width=".3"/>
	<line x1="43.82" y1="404.45" x2="88.82" y2="404.45" stroke="yellow" stroke-width=".3"/>
	<line x1="43.82" y1="404.45" x2="0.00" y2="471.27" stroke="yellow" stroke-width=".3"/>
	<line x1="88.82" y1="404.45" x2="0.00" y2="573.26" stroke="yellow" stroke-width=".3"/>
	<line x1="0.00" y1="471.27" x2="0.00" y2="573.26" stroke="yellow" stroke-width=".3"/>
	<line x1="43.82" y1="404.45" x2="43.82" y2="429.45" stroke="yellow" stroke-width=".3"/>
	<line x1="43.82" y1="404.45" x2="0.00" y2="471.27" stroke="yellow" stroke-width=".3"/>
	<line x1="43.82" y1="429.45" x2="0.00" y2="501.08" stroke="yellow" stroke-width=".3"/>
	<line x1="0.00" y1="471.27" x2="0.00" y2="501.08" stroke="yellow" stroke-width=".3"/>
	<line x1="84.46" y1="332.71" x2="84.46" y2="357.71" stroke="yellow" stroke-width=".3"/>
	<line x1="84.46" y1="332.71" x2="0.00" y2="457.11" stroke="yellow" stroke-width=".3"/>
	<line x1="84.46" y1="357.71" x2="0.00" y2="493.40" stroke="yellow" stroke-width=".3"/>
	<line x1="0.00" y1="457.11" x2="0.00" y2="493.40" stroke="yellow" stroke-width=".3"/>
	<line x1="115.00" y1="260.00" x2="115.00" y2="285.00" stroke="yellow" stroke-width=".3"/>
	<line x1="115.00" y1="260.00" x2="0.00" y2="408.99" stroke="yellow" stroke-width=".3"/>
	<line x1="115.00" y1="285.00" x2="0.00" y2="452.36" stroke="yellow" stroke-width=".3"/>
	<line x1="0.00" y1="408.99" x2="0.00" y2="452.36" stroke="yellow" stroke-width=".3"/>
	<line x1="70.00" y1="285.00" x2="115.00" y2="285.00" stroke="yellow" stroke-width=".3"/>
	<line x1="70.00" y1="285.00" x2="0.00" y2="364.12" stroke="yellow" stroke-width=".3"/>
	<line x1="115.00" y1="285.00" x2="0.00" y2="452.36" stroke="yellow" stroke-width=".3"/>
	<line x1="0.00" y1="364.12" x2="0.00" y2="452.36" stroke="yellow" stroke-width=".3"/>
	<line x1="232.29" y1="84.46" x2="232.29" y2="109.46" stroke="yellow" stroke-width=".3"/>
	<line x1="232.29" y1="84.46" x2="0.00" y2="245.77" stroke="yellow" stroke-width=".3"/>
	<line x1="232.29" y1="109.46" x2="0.00" y2="418.86" stroke="yellow" stroke-width=".3"/>
	<line x1="0.00" y1="245.77" x2="0.00" y2="418.86" stroke="yellow" stroke-width=".3"/>
	<line x1="187.29" y1="109.46" x2="232.29" y2="109.46" stroke="yellow" stroke-width=".3"/>
	<line x1="187.29" y1="109.46" x2="0.00" y2="225.63" stroke="yellow" stroke-width=".3"/>
	<line x1="232.29" y1="109.46" x2="0.00" y2="418.86" stroke="yellow" stroke-width=".3"/>
	<line x1="0.00" y1="225.63" x2="0.00" y2="418.86" stroke="yellow" stroke-width=".3"/>
	<line x1="70.00" y1="260.00" x2="115.00" y2="260.00" stroke="yellow" stroke-width=".3"/>
	<line x1="70.00" y1="260.00" x2="0.00" y2="330.44" stroke="yellow" stroke-width=".3"/>
	<line x1="115.00" y1="260.00" x2="0.00" y2="408.99" stroke="yellow" stroke-width=".3"/>
	<line x1="0.00" y1="330.44" x2="0.00" y2="408.99" stroke="yellow" stroke-width=".3"/>
	<line x1="50.00" y1="310.72" x2="50.00" y2="335.72" stroke="yellow" stroke-width=".3"/>
	<line x1="50.00" y1="310.72" x2="0.00" y2="367.94" stroke="yellow" stroke-width=".3"/>
	<line x1="50.00" y1="335.72" x2="0.00" y2="398.58" stroke="yellow" stroke-width=".3"/>
	<line x1="0.00" y1="367.94" x2="0.00" y2="398.58" stroke="yellow" stroke-width=".3"/>
	<line x1="5.00" y1="335.72" x2="50.00" y2="335.72" stroke="yellow" stroke-width=".3"/>
	<line x1="5.00" y1="335.72" x2="0.00" y2="340.94" stroke="yellow" stroke-width=".3"/>
	<line x1="50.00" y1="335.72" x2="0.00" y2="398.58" stroke="yellow" stroke-width=".3"/>
	<line x1="0.00" y1="340.94" x2="0.00" y2="398.58" stroke="yellow" stroke-width=".3"/>
	<line x1="5.00" y1="310.72" x2="50.00" y2="310.72" stroke="yellow" stroke-width=".3"/>
	<line x1="5.00" y1="310.72" x2="0.00" y2="315.48" stroke="yellow" stroke-width=".3"/>
	<line x1="50.00" y1="310.72" x2="0.00" y2="367.94" stroke="yellow" stroke-width=".3"/>
	<line x1="0.00" y1="315.48" x2="0.00" y2="367.94" stroke="yellow" stroke-width=".3"/>
	<line x1="70.00" y1="260.00" x2="70.00" y2="285.00" stroke="yellow" stroke-width=".3"/>
	<line x1="70.00" y1="260.00" x2="0.00" y2="330.44" stroke="yellow" stroke-width=".3"/>
	<line x1="70.00" y1="285.00" x2="0.00" y2="364.12" stroke="yellow" stroke-width=".3"/>
	<line x1="0.00" y1="330.44" x2="0.00" y2="364.12" stroke="yellow" stroke-width=".3"/>
	<line x1="129.46" y1="187.29" x2="129.46" y2="212.29" stroke="yellow" stroke-width=".3"/>
	<line x1="129.46" y1="187.29" x2="0.00" y2="305.83" stroke="yellow" stroke-width=".3"/>
	<line x1="129.46" y1="212.29" x2="0.00" y2="353.62" stroke="yellow" stroke-width=".3"/>
	<line x1="0.00" y1="305.83" x2="0.00" y2="353.62" stroke="yellow" stroke-width=".3"/>
	<line x1="84.46" y1="212.29" x2="129.46" y2="212.29" stroke="yellow" stroke-width=".3"/>
	<line x1="84.46" y1="212.29" x2="0.00" y2="282.31" stroke="yellow" stroke-width=".3"/>
	<line x1="129.46" y1="212.29" x2="0.00" y2="353.62" stroke="yellow" stroke-width=".3"/>
	<line x1="0.00" y1="282.31" x2="0.00" y2="353.62" stroke="yellow" stroke-width=".3"/>
	<line x1="5.00" y1="310.72" x2="5.00" y2="335.72" stroke="yellow" stroke-width=".3"/>
	<line x1="5.00" y1="310.72" x2="0.00" y2="315.48" stroke="yellow" stroke-width=".3"/>
	<line x1="5.00" y1="335.72" x2="0.00" y2="340.94" stroke="yellow" stroke-width=".3"/>
	<line x1="0.00" y1="315.48" x2="0.00" y2="340.94" stroke="yellow" stroke-width=".3"/>
	<line x1="170.65" y1="125.65" x2="170.65" y2="150.65" stroke="yellow" stroke-width=".3"/>
	<line x1="170.65" y1="125.65" x2="0.00" y2="241.42" stroke="yellow" stroke-width=".3"/>
	<line x1="170.65" y1="150.65" x2="0.00" y2="308.72" stroke="yellow" stroke-width=".3"/>
	<line x1="0.00" y1="241.42" x2="0.00" y2="308.72" stroke="yellow" stroke-width=".3"/>
	<line x1="125.65" y1="150.65" x2="170.65" y2="150.65" stroke="yellow" stroke-width=".3"/>
	<line x1="125.65" y1="150.65" x2="0.00" y2="231.13" stroke="yellow" stroke-width=".3"/>
	<line x1="170.65" y1="150.65" x2="0.00" y2="308.72" stroke="yellow" stroke-width=".3"/>
	<line x1="0.00" y1="231.13" x2="0.00" y2="308.72" stroke="yellow" stroke-width=".3"/>
	<line x1="84.46" y1="187.29" x2="129.46" y2="187.29" stroke="yellow" stroke-width=".3"/>
	<line x1="84.46" y1="187.29" x2="0.00" y2="246.02" stroke="yellow" stroke-width=".3"/>
	<line x1="129.46" y1="187.29" x2="0.00" y2="305.83" stroke="yellow" stroke-width=".3"/>
	<line x1="0.00" y1="246.02" x2="0.00" y2="305.83" stroke="yellow" stroke-width=".3"/>
	<line x1="84.46" y1="187.29" x2="84.46" y2="212.29" stroke="yellow" stroke-width=".3"/>
	<line x1="84.46" y1="187.29" x2="0.00" y2="246.02" stroke="yellow" stroke-width=".3"/>
	<line x1="84.46" y1="212.29" x2="0.00" y2="282.31" stroke="yellow" stroke-width=".3"/>
	<line x1="0.00" y1="246.02" x2="0.00" y2="282.31" stroke="yellow" stroke-width=".3"/>
	<line x1="50.00" y1="209.28" x2="50.00" y2="234.28" stroke="yellow" stroke-width=".3"/>
	<line x1="50.00" y1="209.28" x2="0.00" y2="243.59" stroke="yellow" stroke-width=".3"/>
	<line x1="50.00" y1="234.28" x2="0.00" y2="274.24" stroke="yellow" stroke-width=".3"/>
	<line x1="0.00" y1="243.59" x2="0.00" y2="274.24" stroke="yellow" stroke-width=".3"/>
	<line x1="5.00" y1="234.28" x2="50.00" y2="234.28" stroke="yellow" stroke-width=".3"/>
	<line x1="5.00" y1="234.28" x2="0.00" y2="237.60" stroke="yellow" stroke-width=".3"/>
	<line x1="50.00" y1="234.28" x2="0.00" y2="274.24" stroke="yellow" stroke-width=".3"/>
	<line x1="0.00" y1="237.60" x2="0.00" y2="274.24" stroke="yellow" stroke-width=".3"/>
	<line x1="187.29" y1="84.46" x2="232.29" y2="84.46" stroke="yellow" stroke-width=".3"/>
	<line x1="187.29" y1="84.46" x2="0.00" y2="145.03" stroke="yellow" stroke-width=".3"/>
	<line x1="232.29" y1="84.46" x2="0.00" y2="245.77" stroke="yellow" stroke-width=".3"/>
	<line x1="0.00" y1="145.03" x2="0.00" y2="245.77" stroke="yellow" stroke-width=".3"/>
	<line x1="5.00" y1="209.28" x2="50.00" y2="209.28" stroke="yellow" stroke-width=".3"/>
	<line x1="5.00" y1="209.28" x2="0.00" y2="212.13" stroke="yellow" stroke-width=".3"/>
	<line x1="50.00" y1="209.28" x2="0.00" y2="243.59" stroke="yellow" stroke-width=".3"/>
	<line x1="0.00" y1="212.13" x2="0.00" y2="243.59" stroke="yellow" stroke-width=".3"/>
	<line x1="125.65" y1="125.65" x2="170.65" y2="125.65" stroke="yellow" stroke-width=".3"/>
	<line x1="125.65" y1="125.65" x2="0.00" y2="184.59" stroke="yellow" stroke-width=".3"/>
	<line x1="170.65" y1="125.65" x2="0.00" y2="241.42" stroke="yellow" stroke-width=".3"/>
	<line x1="0.00" y1="184.59" x2="0.00" y2="241.42" stroke="yellow" stroke-width=".3"/>
	<line x1="5.00" y1="209.28" x2="5.00" y2="234.28" stroke="yellow" stroke-width=".3"/>
	<line x1="5.00" y1="209.28" x2="0.00" y2="212.13" stroke="yellow" stroke-width=".3"/>
	<line x1="5.00" y1="234.28" x2="0.00" y2="237.60" stroke="yellow" stroke-width=".3"/>
	<line x1="0.00" y1="212.13" x2="0.00" y2="237.60" stroke="yellow" stroke-width=".3"/>
	<line x1="125.65" y1="125.65" x2="125.65" y2="150.65" stroke="yellow" stroke-width=".3"/>
	<line x1="125.65" y1="125.65" x2="0.00" y2="184.59" stroke="yellow" stroke-width=".3"/>
	<line x1="125.65" y1="150.65" x2="0.00" y2="231.13" stroke="yellow" stroke-width=".3"/>
	<line x1="0.00" y1="184.59" x2="0.00" y2="231.13" stroke="yellow" stroke-width=".3"/>
	<line x1="187.29" y1="84.46" x2="187.29" y2="109.46" stroke="yellow" stroke-width=".3"/>
	<line x1="187.29" y1="84.46" x2="0.00" y2="145.03" stroke="yellow" stroke-width=".3"/>
	<line x1="187.29" y1="109.46" x2="0.00" y2="225.63" stroke="yellow" stroke-width=".3"/>
	<line x1="0.00" y1="145.03" x2="0.00" y2="225.63" stroke="yellow" stroke-width=".3"/>
	<line x1="88.82" y1="115.55" x2="88.82" y2="140.55" stroke="yellow" stroke-width=".3"/>
	<line x1="88.82" y1="115.55" x2="0.00" y2="143.91" stroke="yellow" stroke-width=".3"/>
	<line x1="88.82" y1="140.55" x2="0.00" y2="181.06" stroke="yellow" stroke-width=".3"/>
	<line x1="0.00" y1="143.91" x2="0.00" y2="181.06" stroke="yellow" stroke-width=".3"/>
	<line x1="43.82" y1="140.55" x2="88.82" y2="140.55" stroke="yellow" stroke-width=".3"/>
	<line x1="43.82" y1="140.55" x2="0.00" y2="156.59" stroke="yellow" stroke-width=".3"/>
	<line x1="88.82" y1="140.55" x2="0.00" y2="181.06" stroke="yellow" stroke-width=".3"/>
	<line x1="0.00" y1="156.59" x2="0.00" y2="181.06" stroke="yellow" stroke-width=".3"/>
	<line x1="43.82" y1="115.55" x2="43.82" y2="140.55" stroke="yellow" stroke-width=".3"/>
	<line x1="43.82" y1="115.55" x2="0.00" y2="126.78" stroke="yellow" stroke-width=".3"/>
	<line x1="43.82" y1="140.55" x2="0.00" y2="156.59" stroke="yellow" stroke-width=".3"/>
	<line x1="0.00" y1="126.78" x2="0.00" y2="156.59" stroke="yellow" stroke-width=".3"/>
	<line x1="43.82" y1="115.55" x2="88.82" y2="115.55" stroke="yellow" stroke-width=".3"/>
	<line x1="43.82" y1="115.55" x2="0.00" y2="126.78" stroke="yellow" stroke-width=".3"/>
	<line x1="88.82" y1="115.55" x2="0.00" y2="143.91" stroke="yellow" stroke-width=".3"/>
	<line x1="0.00" y1="126.78" x2="0.00" y2="143.91" stroke="yellow" stroke-width=".3"/>
	<line x1="160.55" y1="43.82" x2="160.55" y2="68.82" stroke="yellow" stroke-width=".3"/>
	<line x1="160.55" y1="43.82" x2="0.00" y2="24.41" stroke="yellow" stroke-width=".3"/>
	<line x1="160.55" y1="68.82" x2="0.00" y2="85.59" stroke="yellow" stroke-width=".3"/>
	<line x1="0.00" y1="24.41" x2="0.00" y2="85.59" stroke="yellow" stroke-width=".3"/>
	<line x1="115.55" y1="68.82" x2="160.55" y2="68.82" stroke="yellow" stroke-width=".3"/>
	<line x1="115.55" y1="68.82" x2="0.00" y2="77.40" stroke="yellow" stroke-width=".3"/>
	<line x1="160.55" y1="68.82" x2="0.00" y2="85.59" stroke="yellow" stroke-width=".3"/>
	<line x1="0.00" y1="77.40" x2="0.00" y2="85.59" stroke="yellow" stroke-width=".3"/>
	<line x1="115.55" y1="43.82" x2="115.55" y2="68.82" stroke="yellow" stroke-width=".3"/>
	<line x1="115.55" y1="43.82" x2="0.00" y2="33.88" stroke="yellow" stroke-width=".3"/>
	<line x1="115.55" y1="68.82" x2="0.00" y2="77.40" stroke="yellow" stroke-width=".3"/>
	<line x1="0.00" y1="33.88" x2="0.00" y2="77.40" stroke="yellow" stroke-width=".3"/>
	<line x1="115.55" y1="43.82" x2="160.55" y2="43.82" stroke="yellow" stroke-width=".3"/>
	<line x1="115.55" y1="43.82" x2="0.00" y2="33.88" stroke="yellow" stroke-width=".3"/>
	<line x1="160.55" y1="43.82" x2="0.00" y2="24.41" stroke="yellow" stroke-width=".3"/>
	<line x1="0.00" y1="33.88" x2="0.00" y2="24.41" stroke="yellow" stroke-width=".3"/>
	<line x1="209.28" y1="30.00" x2="254.28" y2="30.00" stroke="yellow" stroke-width=".3"/>
	<line x1="209.28" y1="30.00" x2="140.73" y2="0.00" stroke="yellow" stroke-width=".3"/>
	<line x1="254.28" y1="30.00" x2="235.30" y2="0.00" stroke="yellow" stroke-width=".3"/>
	<line x1="140.73" y1="0.00" x2="235.30" y2="0.00" stroke="yellow" stroke-width=".3"/>
	<line x1="209.28" y1="5.00" x2="209.28" y2="30.00" stroke="yellow" stroke-width=".3"/>
	<line x1="209.28" y1="5.00" x2="203.32" y2="0.00" stroke="yellow" stroke-width=".3"/>
	<line x1="209.28" y1="30.00" x2="140.73" y2="0.00" stroke="yellow" stroke-width=".3"/>
	<line x1="140.73" y1="0.00" x2="203.32" y2="0.00" stroke="yellow" stroke-width=".3"/>
	<line x1="209.28" y1="5.00" x2="254.28" y2="5.00" stroke="yellow" stroke-width=".3"/>
	<line x1="209.28" y1="5.00" x2="203.32" y2="0.00" stroke="yellow" stroke-width=".3"/>
	<line x1="254.28" y1="5.00" x2="252.63" y2="0.00" stroke="yellow" stroke-width=".3"/>
	<line x1="203.32" y1="0.00" x2="252.63" y2="0.00" stroke="yellow" stroke-width=".3"/>
	<line x1="254.28" y1="5.00" x2="254.28" y2="30.00" stroke="yellow" stroke-width=".3"/>
	<line x1="254.28" y1="5.00" x2="252.63" y2="0.00" stroke="yellow" stroke-width=".3"/>
	<line x1="254.28" y1="30.00" x2="235.30" y2="0.00" stroke="yellow" stroke-width=".3"/>
	<line x1="235.30" y1="0.00" x2="252.63" y2="0.00" stroke="yellow" stroke-width=".3"/>
	<line x1="310.72" y1="5.00" x2="355.72" y2="5.00" stroke="yellow" stroke-width=".3"/>
	<line x1="310.72" y1="5.00" x2="314.47" y2="0.00" stroke="yellow" stroke-width=".3"/>
	<line x1="355.72" y1="5.00" x2="363.78" y2="0.00" stroke="yellow" stroke-width=".3"/>
	<line x1="314.47" y1="0.00" x2="363.78" y2="0.00" stroke="yellow" stroke-width=".3"/>
	<line x1="310.72" y1="5.00" x2="310.72" y2="30.00" stroke="yellow" stroke-width=".3"/>
	<line x1="310.72" y1="5.00" x2="314.47" y2="0.00" stroke="yellow" stroke-width=".3"/>
	<line x1="310.72" y1="30.00" x2="353.92" y2="0.00" stroke="yellow" stroke-width=".3"/>
	<line x1="314.47" y1="0.00" x2="353.92" y2="0.00" stroke="yellow" stroke-width=".3"/>
	<line x1="310.72" y1="30.00" x2="355.72" y2="30.00" stroke="yellow" stroke-width=".3"/>
	<line x1="310.72" y1="30.00" x2="353.92" y2="0.00" stroke="yellow" stroke-width=".3"/>
	<line x1="355.72" y1="30.00" x2="448.48" y2="0.00" stroke="yellow" stroke-width=".3"/>
	<line x1="353.92" y1="0.00" x2="448.48" y2="0.00" stroke="yellow" stroke-width=".3"/>
	<line x1="355.72" y1="5.00" x2="355.72" y2="30.00" stroke="yellow" stroke-width=".3"/>
	<line x1="355.72" y1="5.00" x2="363.78" y2="0.00" stroke="yellow" stroke-width=".3"/>
	<line x1="355.72" y1="30.00" x2="448.48" y2="0.00" stroke="yellow" stroke-width=".3"/>
	<line x1="363.78" y1="0.00" x2="448.48" y2="0.00" stroke="yellow" stroke-width=".3"/>
	<line x1="404.45" y1="43.82" x2="449.45" y2="43.82" stroke="yellow" stroke-width=".3"/>
	<line x1="404.45" y1="43.82" x2="715.91" y2="12.40" stroke="yellow" stroke-width=".3"/>
	<line x1="449.45" y1="43.82" x2="715.91" y2="23.73" stroke="yellow" stroke-width=".3"/>
	<line x1="715.91" y1="12.40" x2="715.91" y2="23.73" stroke="yellow" stroke-width=".3"/>
</svg>