<svg viewbox="0 0 142.00 113.20" xmlns="http://www.w3.org/2000/svg" xmlns:xlink="http://www.w3.org/1999/xlink" width="100%" height="100%">
	<line x1="76.85" y1="71.35" x2="99.35" y2="71.35" stroke="yellow" stroke-width=".3"/>
	<line x1="76.85" y1="71.35" x2="86.36" y2="113.20" stroke="yellow" stroke-width=".3"/>
	<line x1="99.35" y1="71.35" x2="142.00" y2="104.64" stroke="yellow" stroke-width=".3"/>
	<line x1="142.00" y1="104.64" x2="142.00" y2="113.20" stroke="yellow" stroke-width=".3"/>
	<line x1="86.36" y1="113.20" x2="142.00" y2="113.20" stroke="yellow" stroke-width=".3"/>
	<line x1="99.35" y1="25.35" x2="99.35" y2="71.35" stroke="yellow" stroke-width=".3"/>
	<line x1="99.35" y1="25.35" x2="127.48" y2="0.00" stroke="yellow" stroke-width=".3"/>
	<line x1="99.35" y1="71.35" x2="142.00" y2="104.64" stroke="yellow" stroke-width=".3"/>
	<line x1="142.00" y1="0.00" x2="142.00" y2="104.64" stroke="yellow" stroke-width=".3"/>
	<line x1="127.48" y1="0.00" x2="142.00" y2="0.00" stroke="yellow" stroke-width=".3"/>
	<line x1="33.79" y1="61.44" x2="85.79" y2="61.44" stroke="yellow" stroke-width=".3"/>
	<line x1="33.79" y1="61.44" x2="0.00" y2="71.56" stroke="yellow" stroke-width=".3"/>
	<line x1="85.79" y1="61.44" x2="142.00" y2="108.07" stroke="yellow" stroke-width=".3"/>
	<line x1="0.00" y1="71.56" x2="0.00" y2="113.20" stroke="yellow" stroke-width=".3"/>
	<line x1="142.00" y1="108.07" x2="142.00" y2="113.20" stroke="yellow" stroke-width=".3"/>
	<line x1="0.00" y1="113.20" x2="142.00" y2="113.20" stroke="yellow" stroke-width=".3"/>
	<line x1="85.79" y1="61.44" x2="85.79" y2="95.94" stroke="yellow" stroke-width=".3"/>
	<line x1="85.79" y1="61.44" x2="142.00" y2="108.07" stroke="yellow" stroke-width=".3"/>
	<line x1="85.79" y1="95.94" x2="90.97" y2="113.20" stroke="yellow" stroke-width=".3"/>
	<line x1="142.00" y1="108.07" x2="142.00" y2="113.20" stroke="yellow" stroke-width=".3"/>
	<line x1="90.97" y1="113.20" x2="142.00" y2="113.20" stroke="yellow" stroke-width=".3"/>
	<line x1="111.00" y1="98.20" x2="127.00" y2="98.20" stroke="yellow" stroke-width=".3"/>
	<line x1="111.00" y1="98.20" x2="123.14" y2="113.20" stroke="yellow" stroke-width=".3"/>
	<line x1="127.00" y1="98.20" x2="142.00" y2="111.35" stroke="yellow" stroke-width=".3"/>
	<line x1="142.00" y1="111.35" x2="142.00" y2="113.20" stroke="yellow" stroke-width=".3"/>
	<line x1="123.14" y1="113.20" x2="142.00" y2="113.20" stroke="yellow" stroke-width=".3"/>
	<line x1="127.00" y1="23.70" x2="127.00" y2="98.20" stroke="yellow" stroke-width=".3"/>
	<line x1="127.00" y1="23.70" x2="142.00" y2="16.53" stroke="yellow" stroke-width=".3"/>
	<line x1="127.00" y1="98.20" x2="142.00" y2="111.35" stroke="yellow" stroke-width=".3"/>
	<line x1="142.00" y1="16.53" x2="142.00" y2="111.35" stroke="yellow" stroke-width=".3"/>
	<line x1="111.00" y1="23.70" x2="111.00" y2="98.20" stroke="yellow" stroke-width=".3"/>
	<line x1="111.00" y1="23.70" x2="142.00" y2="2.79" stroke="yellow" stroke-width=".3"/>
	<line x1="111.00" y1="98.20" x2="123.14" y2="113.20" stroke="yellow" stroke-width=".3"/>
	<line x1="142.00" y1="2.79" x2="142.00" y2="113.20" stroke="yellow" stroke-width=".3"/>
	<line x1="123.14" y1="113.20" x2="142.00" y2="113.20" stroke="yellow" stroke-width=".3"/>
	<line x1="33.79" y1="95.94" x2="85.79" y2="95.94" stroke="yellow" stroke-width=".3"/>
	<line x1="33.79" y1="95.94" x2="19.43" y2="113.20" stroke="yellow" stroke-width=".3"/>
	<line x1="85.79" y1="95.94" x2="90.97" y2="113.20" stroke="yellow" stroke-width=".3"/>
	<line x1="19.43" y1="113.20" x2="90.97" y2="113.20" stroke="yellow" stroke-width=".3"/>
	<line x1="76.85" y1="25.35" x2="76.85" y2="71.35" stroke="yellow" stroke-width=".3"/>
	<line x1="76.85" y1="25.35" x2="81.84" y2="0.00" stroke="yellow" stroke-width=".3"/>
	<line x1="76.85" y1="71.35" x2="86.36" y2="113.20" stroke="yellow" stroke-width=".3"/>
	<line x1="142.00" y1="0.00" x2="142.00" y2="113.20" stroke="yellow" stroke-width=".3"/>
	<line x1="81.84" y1="0.00" x2="142.00" y2="0.00" stroke="yellow" stroke-width=".3"/>
	<line x1="86.36" y1="113.20" x2="142.00" y2="113.20" stroke="yellow" stroke-width=".3"/>
	<line x1="33.79" y1="61.44" x2="33.79" y2="95.94" stroke="yellow" stroke-width=".3"/>
	<line x1="33.79" y1="61.44" x2="0.00" y2="71.56" stroke="yellow" stroke-width=".3"/>
	<line x1="33.79" y1="95.94" x2="19.43" y2="113.20" stroke="yellow" stroke-width=".3"/>
	<line x1="0.00" y1="71.56" x2="0.00" y2="113.20" stroke="yellow" stroke-width=".3"/>
	<line x1="19.43" y1="113.20" x2="0.00" y2="113.20" stroke="yellow" stroke-width=".3"/>
	<line x1="21.00" y1="47.00" x2="58.00" y2="47.00" stroke="yellow" stroke-width=".3"/>
	<line x1="21.00" y1="47.00" x2="0.00" y2="45.76" stroke="yellow" stroke-width=".3"/>
	<line x1="58.00" y1="47.00" x2="0.00" y2="34.57" stroke="yellow" stroke-width=".3"/>
	<line x1="0.00" y1="45.76" x2="0.00" y2="34.57" stroke="yellow" stroke-width=".3"/>
	<line x1="21.00" y1="24.00" x2="21.00" y2="47.00" stroke="yellow" stroke-width=".3"/>
	<line x1="21.00" y1="24.00" x2="0.00" y2="13.29" stroke="yellow" stroke-width=".3"/>
	<line x1="21.00" y1="47.00" x2="0.00" y2="45.76" stroke="yellow" stroke-width=".3"/>
	<line x1="0.00" y1="13.29" x2="0.00" y2="45.76" stroke="yellow" stroke-width=".3"/>
	<line x1="58.00" y1="24.00" x2="58.00" y2="47.00" stroke="yellow" stroke-width=".3"/>
	<line x1="58.00" y1="24.00" x2="45.08" y2="0.00" stroke="yellow" stroke-width=".3"/>
	<line x1="58.00" y1="47.00" x2="0.00" y2="34.57" stroke="yellow" stroke-width=".3"/>
	<line x1="0.00" y1="34.57" x2="0.00" y2="0.00" stroke="yellow" stroke-width=".3"/>
	<line x1="45.08" y1="0.00" x2="0.00" y2="0.00" stroke="yellow" stroke-width=".3"/>
	<line x1="22.00" y1="35.00" x2="32.00" y2="35.00" stroke="yellow" stroke-width=".3"/>
	<line x1="22.00" y1="35.00" x2="0.00" y2="28.40" stroke="yellow" stroke-width=".3"/>
	<line x1="32.00" y1="35.00" x2="0.00" y2="23.00" stroke="yellow" stroke-width=".3"/>
	<line x1="0.00" y1="28.40" x2="0.00" y2="23.00" stroke="yellow" stroke-width=".3"/>
	<line x1="22.00" y1="25.00" x2="22.00" y2="35.00" stroke="yellow" stroke-width=".3"/>
	<line x1="22.00" y1="25.00" x2="0.00" y2="14.00" stroke="yellow" stroke-width=".3"/>
	<line x1="22.00" y1="35.00" x2="0.00" y2="28.40" stroke="yellow" stroke-width=".3"/>
	<line x1="0.00" y1="14.00" x2="0.00" y2="28.40" stroke="yellow" stroke-width=".3"/>
	<line x1="32.00" y1="25.00" x2="32.00" y2="35.00" stroke="yellow" stroke-width=".3"/>
	<line x1="32.00" y1="25.00" x2="0.00" y2="5.00" stroke="yellow" stroke-width=".3"/>
	<line x1="32.00" y1="35.00" x2="0.00" y2="23.00" stroke="yellow" stroke-width=".3"/>
	<line x1="0.00" y1="5.00" x2="0.00" y2="23.00" stroke="yellow" stroke-width=".3"/>
	<line x1="22.00" y1="25.00" x2="32.00" y2="25.00" stroke="yellow" stroke-width=".3"/>
	<line x1="22.00" y1="25.00" x2="0.00" y2="14.00" stroke="yellow" stroke-width=".3"/>
	<line x1="32.00" y1="25.00" x2="0.00" y2="5.00" stroke="yellow" stroke-width=".3"/>
	<line x1="0.00" y1="14.00" x2="0.00" y2="5.00" stroke="yellow" stroke-width=".3"/>
	<line x1="21.00" y1="24.00" x2="58.00" y2="24.00" stroke="yellow" stroke-width=".3"/>
	<line x1="21.00" y1="24.00" x2="0.00" y2="13.29" stroke="yellow" stroke-width=".3"/>
	<line x1="58.00" y1="24.00" x2="45.08" y2="0.00" stroke="yellow" stroke-width=".3"/>
	<line x1="0.00" y1="13.29" x2="0.00" y2="0.00" stroke="yellow" stroke-width=".3"/>
	<line x1="45.08" y1="0.00" x2="0.00" y2="0.00" stroke="yellow" stroke-width=".3"/>
	<line x1="76.85" y1="25.35" x2="99.35" y2="25.35" stroke="yellow" stroke-width=".3"/>
	<line x1="76.85" y1="25.35" x2="81.84" y2="0.00" stroke="yellow" stroke-width=".3"/>
	<line x1="99.35" y1="25.35" x2="127.48" y2="0.00" stroke="yellow" stroke-width=".3"/>
	<line x1="81.84" y1="0.00" x2="127.48" y2="0.00" stroke="yellow" stroke-width=".3"/>
	<line x1="111.00" y1="23.70" x2="127.00" y2="23.70" stroke="yellow" stroke-width=".3"/>
	<line x1="111.00" y1="23.70" x2="142.00" y2="2.79" stroke="yellow" stroke-width=".3"/>
	<line x1="127.00" y1="23.70" x2="142.00" y2="16.53" stroke="yellow" stroke-width=".3"/>
	<line x1="142.00" y1="2.79" x2="142.00" y2="16.53" stroke="yellow" stroke-width=".3"/>
</svg>