<!-- Rodrigo Mimura Shimomura -->
 <svg viewBox = "0 0 142.00 113.20" xmlns="http://www.w3.org/2000/svg" xmlns:xlink="http://www.w3.org/1999/xlink">
	<rect x="0" y="0" width="142.00" height="113.20" 
  style="fill:lightgrey;stroke:yellow;stroke-width:.5;fill-opacity:0.1;stroke-opacity:1" />
	<rect x="21.00" y="24.00" width="37.00" height="23.00" id="r1"
  style="fill:cyan;stroke:blue;stroke-width:.5;fill-opacity:0.5;stroke-opacity:1" />
	<rect x="111.00" y="23.70" width="16.00" height="74.50" id="r2"
  style="fill:cyan;stroke:blue;stroke-width:.5;fill-opacity:0.5;stroke-opacity:1" />
	<rect x="22.00" y="25.00" width="10.00" height="10.00" id="rteste"
  style="fill:cyan;stroke:blue;stroke-width:.5;fill-opacity:0.5;stroke-opacity:1" />
	<rect x="33.79" y="61.44" width="52.00" height="34.50" id="r.01"
  style="fill:lime;stroke:red;stroke-width:.5;fill-opacity:0.5;stroke-opacity:1" />
	<rect x="76.85" y="25.35" width="22.50" height="46.00" id="rt02"
  style="fill:magenta;stroke:red;stroke-width:.5;fill-opacity:0.5;stroke-opacity:1" />
	<circle cx="27.00" cy="30.00" r="5.00" id="c1" stroke="black" stroke-width=".5" fill="black" fill-opacity = "0.5" />
	<line x1="25.00" y1="30.00" x2="29.00" y2="30.00" stroke="white" stroke-width=".6"/>
	<line x1="27.00" y1="28.00" x2="27.00" y2="32.00" stroke="white" stroke-width=".6"/>
	<circle cx="27.00" cy="30.00" r="5.00" id="c2" stroke="black" stroke-width=".5" fill="black" fill-opacity = "0.5" />
	<line x1="25.00" y1="30.00" x2="29.00" y2="30.00" stroke="white" stroke-width=".6"/>
	<line x1="27.00" y1="28.00" x2="27.00" y2="32.00" stroke="white" stroke-width=".6"/>
	<circle cx="27.00" cy="30.00" r="5.00" id="c4" stroke="black" stroke-width=".5" fill="black" fill-opacity = "0.5" />
	<line x1="25.00" y1="30.00" x2="29.00" y2="30.00" stroke="white" stroke-width=".6"/>
	<line x1="27.00" y1="28.00" x2="27.00" y2="32.00" stroke="white" stroke-width=".6"/>
	<circle cx="59.79" cy="78.69" r="5.00" id="c5" stroke="black" stroke-width=".5" fill="black" fill-opacity = "0.5" />
	<line x1="57.79" y1="78.69" x2="61.79" y2="78.69" stroke="white" stroke-width=".6"/>
	<line x1="59.79" y1="76.69" x2="59.79" y2="80.69" stroke="white" stroke-width=".6"/>
	<circle cx="88.10" cy="48.35" r="5.00" id="c3" stroke="black" stroke-width=".5" fill="black" fill-opacity = "0.5" />
	<line x1="86.10" y1="48.35" x2="90.10" y2="48.35" stroke="white" stroke-width=".6"/>
	<line x1="88.10" y1="46.35" x2="88.10" y2="50.35" stroke="white" stroke-width=".6"/>
	<rect x="0.00" y="10.00" width="5" height="5"
  style="fill:ff0000;stroke:ff0000;stroke-width:.5;fill-opacity:0.5;stroke-opacity:1" rx="1"/>
	<circle cx="72.00" cy="50.00" r="200.00" stroke="dimgrey" stroke-width=".5" fill="dimgrey" fill-opacity = "0.1" />
	<circle cx="0.00" cy="20.00" r="200.00" stroke="dimgrey" stroke-width=".5" fill="dimgrey" fill-opacity = "0.1" />
	<circle cx="0.00" cy="12.00" r="200.00" stroke="dimgrey" stroke-width=".5" fill="dimgrey" fill-opacity = "0.1" />
</svg>